<svg xmlns="http://www.w3.org/2000/svg" viewBox="0 0 553.71 551.83"><defs><style>.a33882f0-045c-434a-99d8-a4b0c278da72{fill:#d94426;}.e10f8a73-de82-4b4c-ba1c-8aa0967064b8{fill:#d99d26;}.eca648ee-2d95-4034-ba69-121ba201556a{fill:#80d926;}.a6c84c21-4f81-43d0-a5b0-02238df8d504{fill:#26d99d;}.aa12f623-36b7-465c-9719-75be5f10a1cc,.eaee2f8f-91a1-4004-b067-123ed719e361{isolation:isolate;}.aa12f623-36b7-465c-9719-75be5f10a1cc{font-size:16px;font-family:Poppins-Regular, Poppins;}</style></defs><g id="bad73a5b-80fd-4b2b-9303-3629cbef0be0" data-name="Layer 2"><g id="e2ebf388-543f-4253-aaf5-75dacd5a1965" data-name="Layer 1"><g id="aabe4015-1e75-4b0c-ac5f-93b3fa7f7e6b" data-name="f66c14d7-35cf-4e22-b4ff-a746bd6cdc88"><g id="bbe6aac2-7140-4efd-90d1-5070a4d71f06" data-name="a355f8c7-27a5-4a24-9fbe-9aebbc0e35b1"><path class="a33882f0-045c-434a-99d8-a4b0c278da72" d="M288,19.15A20,20,0,0,1,308.84,0h0a14.09,14.09,0,0,1,1.55.13c151.77,18.56,259.77,156.63,241.23,308.4a276.47,276.47,0,0,1-32.89,101,20,20,0,0,1-27.2,7.75c-.45-.25-.9-.52-1.33-.81l-65.83-43.67A20,20,0,0,1,417.65,347,158.19,158.19,0,0,0,301.43,118.7a20,20,0,0,1-16.87-20.63Z"/><path class="e10f8a73-de82-4b4c-ba1c-8aa0967064b8" d="M477.07,434.59a20,20,0,0,1,3.18,28.11h0c-.32.41-.66.8-1,1.18-98.63,105.68-262,117.68-375,27.55a20,20,0,0,1-3.17-28.11h0c.32-.4.66-.8,1-1.18L156,404.4a20,20,0,0,1,26.54-2.4,158.21,158.21,0,0,0,206.16-15.15,20,20,0,0,1,26.61-1.5Z"/><path class="eca648ee-2d95-4034-ba69-121ba201556a" d="M86.43,446.2a20,20,0,0,1-28.24-1.5c-.35-.38-.68-.78-1-1.2A276.86,276.86,0,0,1,41,130a20,20,0,0,1,27.51-6.57q.66.42,1.29.87l63.87,46.49a20,20,0,0,1,5.62,26.05,158.2,158.2,0,0,0,8.79,170.06,20,20,0,0,1-2.9,26.49Z"/><path class="a6c84c21-4f81-43d0-a5b0-02238df8d504" d="M83.71,106.82A20,20,0,0,1,81.76,78.6h0c.35-.39.7-.77,1.07-1.13A276.91,276.91,0,0,1,243.26.17a20,20,0,0,1,22.28,17.42h0c.06.51.1,1,.13,1.55l3.44,78.92a20,20,0,0,1-16.87,20.63,158.22,158.22,0,0,0-82.3,39.66,20,20,0,0,1-26.65.34Z"/><text class="aa12f623-36b7-465c-9719-75be5f10a1cc" transform="translate(450.04 188.48)">Direct</text><text class="aa12f623-36b7-465c-9719-75be5f10a1cc" transform="translate(271.31 494.91)">Email</text><g class="eaee2f8f-91a1-4004-b067-123ed719e361"><text class="aa12f623-36b7-465c-9719-75be5f10a1cc" transform="translate(15.98 288.12)">Union Ads</text></g><g class="eaee2f8f-91a1-4004-b067-123ed719e361"><text class="aa12f623-36b7-465c-9719-75be5f10a1cc" transform="translate(104.7 81.82)"><tspan xml:space="preserve">         Video Ads     </tspan></text></g></g></g></g></g></svg>